<svg height="36" viewBox="0 0 425.2 99.6" width="153.7" xmlns="http://www.w3.org/2000/svg">
<path d="M145.6 61a17.1 17.1 0 0 1-1.3 6.4 13.2 13.2 0 0 1-3.6 5 18.2 18.2 0 0 1-6.2 3.5 28.8 28.8 0 0 1-9 1.2c-2.4 0-4.7-.1-6.8-.3a47.4 47.4 0 0 1-5.6-.7V65.5h1.2l3.6 1.1a16.8 16.8 0 0 0 4.6.6 13 13 0 0 0 5.7-1 5.9 5.9 0 0 0 2.8-2.8 10.1 10.1 0 0 0 1-3.7V33.6h-12V24h25.5v37Zm48.1-4.4q0 9.7-5.7 15.3t-15.9 5.6q-10.3 0-16-5.6t-5.6-15.3q0-9.8 5.7-15.4t16-5.6q10.2 0 15.8 5.6t5.7 15.4ZM178.2 66a10.2 10.2 0 0 0 1.8-3.6 21.8 21.8 0 0 0 .6-5.9 23 23 0 0 0-.6-5.8 10.3 10.3 0 0 0-1.8-3.7 6.2 6.2 0 0 0-2.7-2 10 10 0 0 0-3.4-.6 10 10 0 0 0-3.2.5 6.6 6.6 0 0 0-2.7 2 10.3 10.3 0 0 0-1.9 3.7 22.9 22.9 0 0 0-.7 6 23.3 23.3 0 0 0 .6 5.6A9.8 9.8 0 0 0 166 66a6.6 6.6 0 0 0 2.7 2 10.2 10.2 0 0 0 6.8 0 6.2 6.2 0 0 0 2.7-2Zm61.5-10q0 9.3-5.2 15.2a16.3 16.3 0 0 1-12.8 5.8 21.4 21.4 0 0 1-5.8-.7 19.9 19.9 0 0 1-4.7-2l-.5 2h-12.1V21.6h12.6V41a31.2 31.2 0 0 1 6-3.8 16.4 16.4 0 0 1 7-1.4c5 0 8.8 1.8 11.5 5.4s4 8.5 4 14.9Zm-13 .2q0-5.2-1.8-8t-6.4-2.9a13 13 0 0 0-3.7.6 14.8 14.8 0 0 0-3.6 1.5v19.8a13.2 13.2 0 0 0 2.6.7 20.7 20.7 0 0 0 3 .1c3.3 0 5.8-1 7.4-3s2.5-4.9 2.5-8.8Zm81.5-19.4L296 76.3h-13.4l-8.1-26.6-7.9 26.6h-13.5l-12.2-39.5h13.3L261 64l8.4-27.2h11.2l8 27.2 6.6-27.2h13zM335 66v-8.2l-5.5.6a25.4 25.4 0 0 0-4.6.8A6.3 6.3 0 0 0 322 61a4.3 4.3 0 0 0-1 3 7.8 7.8 0 0 0 .2 2 3 3 0 0 0 1 1.5 5.5 5.5 0 0 0 2 1 14.2 14.2 0 0 0 3.5.3 10.2 10.2 0 0 0 3.8-.8 12 12 0 0 0 3.5-2Zm0 6.1a95 95 0 0 1-2.5 1.9 18.5 18.5 0 0 1-2.9 1.7 17.4 17.4 0 0 1-3.8 1.2 21.3 21.3 0 0 1-4.4.4 13.4 13.4 0 0 1-9.4-3.5 11.5 11.5 0 0 1-3.8-8.8 12 12 0 0 1 2-7 13 13 0 0 1 5.4-4.4 30.6 30.6 0 0 1 8.7-2.2c3.5-.5 7-.8 10.8-1v-.2a4.5 4.5 0 0 0-2.7-4.5 19.1 19.1 0 0 0-7.9-1.3 22 22 0 0 0-6.6 1.1l-5.1 1.7h-1.2v-9.5q2-.5 6.5-1.2a55.4 55.4 0 0 1 9-.8q10.8 0 15.6 3.3t4.8 10.4v26.9H335V72Zm48.1-23.2H382a12.2 12.2 0 0 0-2.6-.4 41 41 0 0 0-3-.2 29.3 29.3 0 0 0-4.8.4 27 27 0 0 0-4.4 1.2v26.4h-12.6V36.8h12.6v5.8a26 26 0 0 1 7.3-4.7 15.8 15.8 0 0 1 5.6-1.2h1.6l1.4.1v12Zm42.1 10h-29a9.1 9.1 0 0 0 3.6 7.1q3.2 2.4 9.6 2.5A21.7 21.7 0 0 0 417 67a24.5 24.5 0 0 0 6-3h1.4v10a46.5 46.5 0 0 1-8.1 2.5 41.8 41.8 0 0 1-8.4.8q-11.9 0-18.2-5.3t-6.3-15.2q0-9.8 6-15.5t16.4-5.7q9.7 0 14.5 4.9t4.8 14v4.4Zm-12.6-7.4c0-2.7-.7-4.6-2-6s-3.1-2-5.8-2a9.2 9.2 0 0 0-6 1.9c-1.5 1.2-2.4 3.3-2.6 6Z" fill="#ff5d02"></path>
<path d="M10 66.4 52.3 24h42.5l-31 31L85 76.3h13.9L84 91.3l-15-15H42.6L31.2 87.6H10l-10 10V76.3h21.5l10-10ZM44.6 26 65 20.5 59.6 0 39.1 5.5Zm163.7 73.4V97h2v2.3Zm7 0V97h2v2.3Zm7 0V97h2v2.3Zm15.8 0-.1-1.6a3 3 0 0 1-2.7 1.8c-2.8 0-3.5-3.3-3.5-5.5s.7-5.4 3.5-5.4a2.8 2.8 0 0 1 2.6 1.6v-6h1.8v15.1Zm-2.3-1.3c2 0 2.2-2.4 2.2-4s-.4-4-2.2-4-2 2.6-2 4a6 6 0 0 0 1 3.7 1.4 1.4 0 0 0 1 .3Zm12.5 1.3-.1-1.4a3 3 0 0 1-3 1.6 2.9 2.9 0 0 1-3-3c0-2.9 2.9-3.6 5.1-3.6h.7v-.6c0-1.4-.5-2.3-2-2.3a5.2 5.2 0 0 0-2.8 1l-.1-1.6a6.5 6.5 0 0 1 3.1-.8c2.6 0 3.6 1.4 3.6 3.5v4.9l.1 2.3Zm-.6-5.2c-1.6 0-3.5.2-3.5 2.2a1.6 1.6 0 0 0 1.6 1.8c1.6 0 2.3-1.5 2.3-2.9v-1Zm10.2 5.2V84.2h1.8v6.2a2.8 2.8 0 0 1 2.6-1.7c2 0 2.8 1.6 2.8 3.5v7.2h-1.8v-7.1c0-1.1-.4-2.1-1.6-2.1-1.4 0-2 1.5-2 2.7v6.5Zm15.7 0V98a3 3 0 0 1-3 1.6 2.9 2.9 0 0 1-3-3c0-2.9 2.8-3.6 5-3.6h.8v-.6c0-1.4-.5-2.3-2.1-2.3a5.2 5.2 0 0 0-2.7 1l-.2-1.6a6.5 6.5 0 0 1 3.2-.8c2.5 0 3.5 1.4 3.5 3.5v4.9l.1 2.3Zm-.5-5.2c-1.7 0-3.6.2-3.6 2.2a1.6 1.6 0 0 0 1.7 1.8c1.6 0 2.2-1.5 2.2-2.9v-1Zm5.3 5.2V84.2h1.8v6.1a2.8 2.8 0 0 1 2.6-1.6c2.9 0 3.6 3.1 3.6 5.4s-.8 5.5-3.6 5.5a2.8 2.8 0 0 1-2.6-1.7v1.5Zm4-1.3c1.7 0 2-2.7 2-4s-.2-4-2-4-2.2 2.5-2.2 4a7.6 7.6 0 0 0 .3 2.7 1.9 1.9 0 0 0 1.8 1.3Zm6-8.9 1.2-5h1.8l-1.5 5Zm9.4-2.5v-2h1.9v2Zm0 12.7V88.9h1.8v10.5Zm11.2-.2a4.6 4.6 0 0 1-1.9.4c-3.4 0-4.7-2.7-4.7-5.5 0-3.1 1.8-5.4 4.7-5.4a4.3 4.3 0 0 1 1.9.3l-.1 1.6a3.6 3.6 0 0 0-1.7-.4c-2.1 0-2.9 2-2.9 3.9s.8 4 3 4a3.3 3.3 0 0 0 1.7-.5Zm2.4.2V84.2h1.9v6.2a2.8 2.8 0 0 1 2.5-1.7c2.1 0 2.9 1.6 2.9 3.5v7.2h-1.8v-7.1c0-1.1-.5-2.1-1.6-2.1s-2 1.5-2 2.7v6.5Zm21.1 0-.1-1.6a3 3 0 0 1-2.7 1.8c-2.8 0-3.5-3.3-3.5-5.5s.7-5.4 3.5-5.4a2.8 2.8 0 0 1 2.6 1.6v-6h1.8v15.1Zm-2.3-1.3c1.9 0 2.1-2.4 2.1-4s-.3-4-2.1-4-2.1 2.6-2.1 4a6 6 0 0 0 1 3.7 1.5 1.5 0 0 0 1 .3Zm8.5-3.5c0 1.7.7 3.6 2.8 3.6a4.2 4.2 0 0 0 2.4-.7l.1 1.5a6.2 6.2 0 0 1-2.7.6c-3.2 0-4.5-2.6-4.5-5.5 0-2.6 1.3-5.4 4-5.4 3 0 3.6 2.8 3.6 5.2v.7Zm4-1.2c0-1.3-.3-3.4-1.8-3.4s-2.2 2-2.2 3.4Zm4.4 6V88.8h1.6v1.6a3 3 0 0 1 2.7-1.7c2.2 0 3 1.6 3 3.5v7.2h-1.9v-7.1c0-1.1-.4-2.1-1.6-2.1s-2 1.4-2 2.5v6.7Zm14.1-1.8a2.3 2.3 0 0 0 1 .3c1.4 0 1.5-1.4 1.5-2.5v-10h2v10c0 2.2-.6 4.2-3.3 4.2a4.2 4.2 0 0 1-1.3-.3Zm7.4-3.6c0-2.5 1.2-5.3 4.1-5.3 3.1 0 4.2 2.7 4.2 5.4s-1.1 5.5-4.2 5.5a3.7 3.7 0 0 1-2-.5c-1.5-1-2.1-3-2.1-5Zm4.1 4c2 0 2.2-2.5 2.2-4s-.2-4-2.2-4-2.2 2.6-2.2 4a7.8 7.8 0 0 0 .3 2.7 2 2 0 0 0 1.9 1.4Zm6.9 1.4V84.2h1.8v6.1a2.8 2.8 0 0 1 2.7-1.6c2.8 0 3.4 3.1 3.4 5.4s-.7 5.5-3.5 5.5a2.9 2.9 0 0 1-2.6-1.7v1.5Zm4-1.3c1.7 0 2-2.7 2-4s-.2-4-2-4-2.2 2.5-2.2 4a7.9 7.9 0 0 0 .3 2.7 1.9 1.9 0 0 0 1.8 1.3Zm11.4 1.3V84.2h1.9v6.2a2.8 2.8 0 0 1 2.5-1.7c2.1 0 2.9 1.6 2.9 3.5v7.2h-1.8v-7.1c0-1.1-.4-2.1-1.6-2.1s-2 1.5-2 2.7v6.5Zm11.9-4.8c0 1.7.7 3.6 2.8 3.6a4.2 4.2 0 0 0 2.4-.7V99a6.2 6.2 0 0 1-2.6.6c-3.3 0-4.5-2.6-4.5-5.5 0-2.6 1.3-5.4 4-5.4 3 0 3.5 2.9 3.5 5.2v.7Zm3.9-1.2c0-1.3-.2-3.4-1.8-3.4s-2.1 2-2.1 3.4Zm4.5 6v-7.6l-.1-3h1.7v1.7a2.9 2.9 0 0 1 2.5-1.8 2.3 2.3 0 0 1 .5 0l-.1 1.8a4.3 4.3 0 0 0-.6 0c-1.6 0-2.2 1.7-2.2 3v5.9Zm7.3-3.9-.2-10.1h2l-.2 10.1Zm-.2 3.9V97h2v2.3Z" fill="#122e45"></path>
</svg>