<?xml version="1.0" encoding="UTF-8" standalone="no"?>
<svg
   xmlns:dc="http://purl.org/dc/elements/1.1/"
   xmlns:cc="http://creativecommons.org/ns#"
   xmlns:rdf="http://www.w3.org/1999/02/22-rdf-syntax-ns#"
   xmlns:svg="http://www.w3.org/2000/svg"
   xmlns="http://www.w3.org/2000/svg"
   xmlns:sodipodi="http://sodipodi.sourceforge.net/DTD/sodipodi-0.dtd"
   xmlns:inkscape="http://www.inkscape.org/namespaces/inkscape"
   version="1.1"
   viewBox="0 0 178.0022 29.00036"
   id="m-logo-wordmark"
   class="hidden-xs"
   style="color:#777777;font-weight:400;font-size:18px;line-height:20px;text-decoration:none;text-decoration-line:none;text-decoration-style:solid;text-decoration-color:#777777"
   sodipodi:docname="m-logo-wordmark.svg"
   width="178.0022"
   height="29.00036"
   inkscape:version="0.92.1 r15371">
  <metadata
     id="metadata23">
    <rdf:RDF>
      <cc:Work
         rdf:about="">
        <dc:format>image/svg+xml</dc:format>
        <dc:type
           rdf:resource="http://purl.org/dc/dcmitype/StillImage" />
        <dc:title></dc:title>
      </cc:Work>
    </rdf:RDF>
  </metadata>
  <defs
     id="defs21" />
  <sodipodi:namedview
     pagecolor="#ffffff"
     bordercolor="#666666"
     borderopacity="1"
     objecttolerance="10"
     gridtolerance="10"
     guidetolerance="10"
     inkscape:pageopacity="0"
     inkscape:pageshadow="2"
     inkscape:window-width="933"
     inkscape:window-height="480"
     id="namedview19"
     showgrid="false"
     fit-margin-top="0"
     fit-margin-left="0"
     fit-margin-right="0"
     fit-margin-bottom="0"
     inkscape:zoom="4.342643"
     inkscape:cx="89.0011"
     inkscape:cy="14.50018"
     inkscape:window-x="0"
     inkscape:window-y="0"
     inkscape:window-maximized="0"
     inkscape:current-layer="m-logo-wordmark" />
  <path
     inkscape:connector-curvature="0"
     id="path2"
     style="color:#777777;font-weight:400;font-size:18px;line-height:20px;text-decoration:none;text-decoration-line:none;text-decoration-style:solid;text-decoration-color:#777777;fill:#6e46ae;fill-rule:evenodd"
     d="m 168.53,16.9473 c 1.3219,-0.48859 5.8059,-2.4897 5.8059,-8.1957 C 174.3359,4.6254 171.0895,0 164.0799,0 h -9.0777 v 29 h 6.2515 V 17.545 h 0.319 L 170.5319,29 h 7.4703 L 168.5304,16.947 Z M 164.7322,12 h -3.7303 V 6 h 3.7303 c 1.9723,0 3.2697,1.3158 3.2697,2.9994 0,1.4718 -1.0961,3.0006 -3.2697,3.0006 z" />
  <polygon
     id="polygon4"
     style="color:#777777;font-weight:400;font-size:18px;line-height:20px;text-decoration:none;text-decoration-line:none;text-decoration-style:solid;text-decoration-color:#777777;fill:#6e46ae;fill-rule:evenodd"
     points="140.5,23.5 140.5,19.5 147,19.5 147,14.5 140.5,14.5 140.5,10.5 149,10.5 149,5 135,5 135,29 149,29 149,23.5 "
     transform="translate(0,3e-4)" />
  <polygon
     id="polygon6"
     style="color:#777777;font-weight:400;font-size:18px;line-height:20px;text-decoration:none;text-decoration-line:none;text-decoration-style:solid;text-decoration-color:#777777;fill:#6e46ae;fill-rule:evenodd"
     points="123.5,29 123.5,10.5 129,10.5 129,5 112,5 112,10.5 117.5,10.5 117.48,29 "
     transform="translate(0,3e-4)" />
  <path
     inkscape:connector-curvature="0"
     id="path8"
     style="color:#777777;font-weight:400;font-size:18px;line-height:20px;text-decoration:none;text-decoration-line:none;text-decoration-style:solid;text-decoration-color:#777777;fill:#6e46ae;fill-rule:evenodd"
     d="m 98.708,29.0003 c -5.4204,0 -8.2367,-2.9876 -8.7082,-3.4406 l 3.0445,-4.2435 c 0.47567,0.41292 2.6335,2.2908 5.4798,2.2908 1.9332,0 2.4928,-0.91066 2.4928,-1.6393 0,-0.75633 -0.57751,-1.429 -2.6174,-2.1765 l -1.7972,-0.65914 c -3.3099,-1.2134 -5.4157,-3.4836 -5.4157,-6.8565 0,-4.1357 3.3692,-7.2753 8.1534,-7.2753 4.3116,0 6.727,2.0375 6.9942,2.2678 l -2.8504,4.3701 c -0.5835,-0.39348 -2.1938,-1.2564 -3.9773,-1.2564 -1.669,0 -2.4299,0.69978 -2.4299,1.5398 0,1.0939 0.98908,1.5586 2.748,2.203 l 1.6259,0.5967 c 3.4064,1.2488 5.5492,3.8141 5.5492,6.8842 0,4.214 -3.3872,7.3949 -8.2918,7.3949" />
  <polygon
     id="polygon10"
     style="color:#777777;font-weight:400;font-size:18px;line-height:20px;text-decoration:none;text-decoration-line:none;text-decoration-style:solid;text-decoration-color:#777777;fill:#6e46ae;fill-rule:evenodd"
     points="84,5 78,5 78,17 64,5 64,29 70,29 70,17.5 84,29 "
     transform="translate(0,3e-4)" />
  <path
     inkscape:connector-curvature="0"
     id="path12"
     style="color:#777777;font-weight:400;font-size:18px;line-height:20px;text-decoration:none;text-decoration-line:none;text-decoration-style:solid;text-decoration-color:#777777;fill:#00b6b4;fill-rule:evenodd"
     d="m 46,5.0003 c -6.7078,0 -12,5.3727 -12,12 0,6.6276 5.2922,12 12,12 6.7078,0 12,-5.3727 12,-12 0,-6.627 -5.2922,-12 -12,-12 m 0,18.382 c -3.5353,0 -6.2558,-2.8572 -6.2558,-6.3825 0,-3.5247 2.7205,-6.3825 6.2558,-6.3825 3.5353,0 6.2564,2.8578 6.2564,6.3825 0,3.5253 -2.721,6.3825 -6.2564,6.3825" />
  <polygon
     id="polygon14"
     style="color:#777777;font-weight:400;font-size:18px;line-height:20px;text-decoration:none;text-decoration-line:none;text-decoration-style:solid;text-decoration-color:#777777;fill:#6e46ae;fill-rule:evenodd"
     points="6.2297,29 6.2297,14.402 14,21.888 21.771,14.402 21.771,29 28,29 28,0 14.001,13.481 0,0 0,29 "
     transform="translate(0,3e-4)" />
</svg>
