<?xml version="1.0" encoding="UTF-8"?>
<svg id="SVGRoot" width="500" height="110.67" version="1.1" viewBox="0 0 500 110.67475" xmlns="http://www.w3.org/2000/svg" xmlns:cc="http://creativecommons.org/ns#" xmlns:dc="http://purl.org/dc/elements/1.1/" xmlns:rdf="http://www.w3.org/1999/02/22-rdf-syntax-ns#"><metadata><rdf:RDF><cc:Work rdf:about=""><dc:format>image/svg+xml</dc:format><dc:type rdf:resource="http://purl.org/dc/dcmitype/StillImage"/><dc:title/></cc:Work></rdf:RDF></metadata><g transform="translate(-137.79 -96.211)"><path class="st0" d="m182.95 120.31v63.013h-17.315v-63.013zm-45.162-24.099h72.653v17.494h-72.653zm91.217 22.313c-19.993 0-33.024 13.567-33.024 33.381 0 19.457 13.388 33.024 33.024 33.024 19.636 0 33.024-13.567 33.024-33.024 0-19.814-13.388-33.381-33.024-33.381zm0 50.518c-9.8179 0-15.887-7.3188-15.887-17.315 0-10.353 6.0693-17.494 15.887-17.494 9.4609 0 15.709 7.3188 15.709 17.494s-6.2478 17.315-15.709 17.315zm71.582-39.986v-15.352h-10.175v-17.315h-17.315v17.315h-10.175v15.352h10.175v26.062c0 18.565 5.8908 29.632 27.49 29.632v-15.352c-7.6758 0-10.175-4.1057-10.175-11.96v-28.383zm53.374-9.1039v3.5702c-4.9982-3.2131-10.71-5.1767-17.672-5.1767-17.494 0-31.06 14.816-31.06 33.381 0 18.386 13.567 33.024 31.06 33.024 6.9618 0 12.674-1.9636 17.672-5.1767v3.5702h17.315v-62.835h-17.315zm0 41.771c-4.1057 5.8908-9.2824 7.4973-14.995 7.4973-9.9964 0-16.244-7.8543-16.244-17.315 0-9.4609 6.4263-17.494 16.244-17.494 5.7122 0 10.889 1.6066 14.995 7.4973zm45.519-65.334v86.933h-17.494v-86.933zm29.275 80.864c0 18.565-5.7122 29.632-27.49 29.632v-15.352c7.4973 0 10.175-4.1057 10.175-11.96v-59.265h17.315zm0-80.864h-17.315v17.315h17.315zm40.521 22.135c-19.993 0-33.024 13.567-33.024 33.381 0 19.457 13.388 33.024 33.024 33.024 19.814 0 33.024-13.567 33.024-33.024 0.17851-19.814-13.21-33.381-33.024-33.381zm0 50.518c-9.8179 0-15.887-7.3188-15.887-17.315 0-10.353 6.0693-17.494 15.887-17.494 9.4609 0 15.709 7.3188 15.709 17.494s-6.0693 17.315-15.709 17.315zm75.509-50.518c-6.9618 0-12.674 1.9636-17.672 5.1767v-27.312h-17.315v86.933h17.315v-3.5702c4.9982 3.2131 10.71 5.1767 17.672 5.1767 17.494 0 31.06-14.816 31.06-33.381 0-18.208-13.388-33.024-31.06-33.024zm-2.4991 50.518c-5.7122 0-10.889-1.6066-14.995-7.4973v-19.993c4.1057-5.8908 9.2824-7.4973 14.995-7.4973 9.9964 0 16.244 7.8543 16.244 17.315 0.17851 9.6394-6.2478 17.672-16.244 17.672zm68.368 1.7851c6.6048 0 10.71-1.7851 10.889-5.1767 0.17851-2.6776-1.071-4.2842-6.6048-5.3552l-12.674-2.4991c-9.2824-1.6066-18.565-6.6048-18.565-18.565 0-11.067 10.353-20.885 26.598-20.885 11.424 0 25.17 3.9272 27.49 21.242h-16.066c-0.53552-5.7122-5.3552-7.4973-11.603-7.4973-6.6048 0-9.2824 2.6776-9.2824 5.1767 0 2.4991 1.4281 5.1767 7.3188 6.0693l10.889 1.7851c9.8179 1.7851 18.743 6.0693 18.743 18.386-0.71403 13.21-11.782 20.885-27.669 20.885-13.567 0-26.241-6.4263-28.561-22.313h16.066c1.6066 6.7833 6.2478 8.7469 13.031 8.7469z" fill="#3cbe0a" stroke-width="1.7851"/></g></svg>
