<svg width="200" height="200" viewBox="0 0 200 200" fill="none" xmlns="http://www.w3.org/2000/svg">
<path d="M64.608 106.76C64.608 105.992 64.464 105.272 64.176 104.6C63.888 103.896 63.488 103.288 62.976 102.776C62.464 102.264 61.872 101.864 61.2 101.576C60.528 101.256 59.792 101.096 58.992 101.096C58.224 101.096 57.504 101.24 56.832 101.528C56.16 101.816 55.568 102.216 55.056 102.728C54.576 103.24 54.176 103.848 53.856 104.552C53.568 105.224 53.424 105.944 53.424 106.712C53.424 107.48 53.568 108.2 53.856 108.872C54.144 109.544 54.544 110.136 55.056 110.648C55.568 111.128 56.16 111.528 56.832 111.848C57.536 112.136 58.272 112.28 59.04 112.28C59.808 112.28 60.528 112.136 61.2 111.848C61.872 111.56 62.448 111.16 62.928 110.648C63.44 110.136 63.84 109.544 64.128 108.872C64.448 108.2 64.608 107.496 64.608 106.76ZM53.664 79.16V96.824C55.712 94.68 58.272 93.608 61.344 93.608C63.168 93.608 64.832 93.96 66.336 94.664C67.872 95.336 69.168 96.264 70.224 97.448C71.312 98.6 72.16 99.976 72.768 101.576C73.376 103.144 73.68 104.824 73.68 106.616C73.68 108.44 73.36 110.152 72.72 111.752C72.112 113.352 71.248 114.744 70.128 115.928C69.008 117.112 67.68 118.056 66.144 118.76C64.64 119.432 63.008 119.768 61.248 119.768C58.048 119.768 55.52 118.6 53.664 116.264V119H44.976V79.16H53.664ZM83.4802 106.568C83.4802 107.4 83.6242 108.168 83.9123 108.872C84.2322 109.544 84.6322 110.136 85.1123 110.648C85.6243 111.16 86.2163 111.56 86.8883 111.848C87.5922 112.136 88.3282 112.28 89.0963 112.28C89.8643 112.28 90.5842 112.136 91.2562 111.848C91.9603 111.56 92.5523 111.16 93.0322 110.648C93.5443 110.136 93.9443 109.544 94.2323 108.872C94.5522 108.168 94.7122 107.416 94.7122 106.616C94.7122 105.848 94.5522 105.128 94.2323 104.456C93.9443 103.752 93.5443 103.144 93.0322 102.632C92.5523 102.12 91.9603 101.72 91.2562 101.432C90.5842 101.144 89.8643 101 89.0963 101C88.3282 101 87.5922 101.144 86.8883 101.432C86.2163 101.72 85.6243 102.12 85.1123 102.632C84.6322 103.144 84.2322 103.736 83.9123 104.408C83.6242 105.08 83.4802 105.8 83.4802 106.568ZM74.3122 106.472C74.3122 104.648 74.6802 102.952 75.4162 101.384C76.1522 99.784 77.1762 98.408 78.4882 97.256C79.8002 96.072 81.3522 95.144 83.1442 94.472C84.9683 93.8 86.9523 93.464 89.0963 93.464C91.2083 93.464 93.1603 93.8 94.9523 94.472C96.7763 95.112 98.3443 96.024 99.6563 97.208C101 98.36 102.04 99.752 102.776 101.384C103.512 102.984 103.88 104.76 103.88 106.712C103.88 108.664 103.496 110.456 102.728 112.088C101.992 113.688 100.968 115.08 99.6563 116.264C98.3443 117.416 96.7603 118.312 94.9043 118.952C93.0803 119.592 91.0963 119.912 88.9522 119.912C86.8403 119.912 84.8883 119.592 83.0962 118.952C81.3043 118.312 79.7522 117.4 78.4402 116.216C77.1602 115.032 76.1522 113.624 75.4162 111.992C74.6802 110.328 74.3122 108.488 74.3122 106.472ZM114.21 94.376V119H105.522V94.376H114.21ZM104.946 84.92C104.946 84.248 105.074 83.624 105.33 83.048C105.586 82.44 105.938 81.912 106.386 81.464C106.834 81.016 107.346 80.664 107.922 80.408C108.53 80.152 109.17 80.024 109.842 80.024C110.514 80.024 111.138 80.152 111.714 80.408C112.322 80.664 112.85 81.016 113.298 81.464C113.746 81.912 114.098 82.44 114.354 83.048C114.61 83.624 114.738 84.248 114.738 84.92C114.738 85.592 114.61 86.232 114.354 86.84C114.098 87.416 113.746 87.928 113.298 88.376C112.85 88.824 112.322 89.176 111.714 89.432C111.138 89.688 110.514 89.816 109.842 89.816C109.17 89.816 108.53 89.688 107.922 89.432C107.346 89.176 106.834 88.824 106.386 88.376C105.938 87.928 105.586 87.416 105.33 86.84C105.074 86.232 104.946 85.592 104.946 84.92ZM125.475 79.16V119H116.787V79.16H125.475ZM128.052 94.376H136.74V98.408C137.668 96.936 138.804 95.816 140.148 95.048C141.492 94.248 143.06 93.848 144.852 93.848C145.076 93.848 145.316 93.848 145.572 93.848C145.86 93.848 146.18 93.88 146.532 93.944V102.248C145.38 101.672 144.132 101.384 142.788 101.384C140.772 101.384 139.252 101.992 138.228 103.208C137.236 104.392 136.74 106.136 136.74 108.44V119H128.052V94.376ZM143.619 114.392C143.619 113.624 143.763 112.904 144.051 112.232C144.339 111.528 144.739 110.92 145.251 110.408C145.763 109.896 146.355 109.496 147.027 109.208C147.731 108.92 148.467 108.776 149.235 108.776C150.003 108.776 150.723 108.92 151.395 109.208C152.099 109.496 152.707 109.896 153.219 110.408C153.731 110.92 154.131 111.528 154.419 112.232C154.707 112.904 154.851 113.624 154.851 114.392C154.851 115.16 154.707 115.896 154.419 116.6C154.131 117.272 153.731 117.864 153.219 118.376C152.707 118.888 152.099 119.288 151.395 119.576C150.723 119.864 150.003 120.008 149.235 120.008C148.467 120.008 147.731 119.864 147.027 119.576C146.355 119.288 145.763 118.888 145.251 118.376C144.739 117.864 144.339 117.272 144.051 116.6C143.763 115.896 143.619 115.16 143.619 114.392Z" fill="black"/>
<circle cx="109.5" cy="84.5" r="5.5" fill="#48EE8D"/>
</svg>
