<svg width="128" height="128" viewBox="0 0 128 128" fill="none" xmlns="http://www.w3.org/2000/svg">
<circle cx="64" cy="64" r="64" fill="#48EE8D"/>
<path d="M67.144 71.68C67.144 70.656 66.952 69.696 66.568 68.8C66.184 67.8613 65.6507 67.0507 64.968 66.368C64.2853 65.6853 63.496 65.152 62.6 64.768C61.704 64.3413 60.7227 64.128 59.656 64.128C58.632 64.128 57.672 64.32 56.776 64.704C55.88 65.088 55.0907 65.6213 54.408 66.304C53.768 66.9867 53.2347 67.7973 52.808 68.736C52.424 69.632 52.232 70.592 52.232 71.616C52.232 72.64 52.424 73.6 52.808 74.496C53.192 75.392 53.7253 76.1813 54.408 76.864C55.0907 77.504 55.88 78.0373 56.776 78.464C57.7147 78.848 58.696 79.04 59.72 79.04C60.744 79.04 61.704 78.848 62.6 78.464C63.496 78.08 64.264 77.5467 64.904 76.864C65.5867 76.1813 66.12 75.392 66.504 74.496C66.9307 73.6 67.144 72.6613 67.144 71.68ZM52.552 34.88V58.432C55.2827 55.5733 58.696 54.144 62.792 54.144C65.224 54.144 67.4427 54.6133 69.448 55.552C71.496 56.448 73.224 57.6853 74.632 59.264C76.0827 60.8 77.2133 62.6347 78.024 64.768C78.8347 66.8587 79.24 69.0987 79.24 71.488C79.24 73.92 78.8133 76.2027 77.96 78.336C77.1493 80.4693 75.9973 82.3253 74.504 83.904C73.0107 85.4827 71.24 86.7413 69.192 87.68C67.1867 88.576 65.0107 89.024 62.664 89.024C58.3973 89.024 55.0267 87.4667 52.552 84.352V88H40.968V34.88H52.552ZM80.787 81.856C80.787 80.832 80.979 79.872 81.363 78.976C81.747 78.0373 82.2803 77.2267 82.963 76.544C83.6457 75.8613 84.435 75.328 85.331 74.944C86.2697 74.56 87.251 74.368 88.275 74.368C89.299 74.368 90.259 74.56 91.155 74.944C92.0937 75.328 92.9043 75.8613 93.587 76.544C94.2697 77.2267 94.803 78.0373 95.187 78.976C95.571 79.872 95.763 80.832 95.763 81.856C95.763 82.88 95.571 83.8613 95.187 84.8C94.803 85.696 94.2697 86.4853 93.587 87.168C92.9043 87.8507 92.0937 88.384 91.155 88.768C90.259 89.152 89.299 89.344 88.275 89.344C87.251 89.344 86.2697 89.152 85.331 88.768C84.435 88.384 83.6457 87.8507 82.963 87.168C82.2803 86.4853 81.747 85.696 81.363 84.8C80.979 83.8613 80.787 82.88 80.787 81.856Z" fill="black"/>
</svg>
