<svg version="1.1" id="Layer_1" xmlns:x="ns_extend;" xmlns:i="ns_ai;" xmlns:graph="ns_graphs;" xmlns="http://www.w3.org/2000/svg" xmlns:xlink="http://www.w3.org/1999/xlink" x="0px" y="0px" viewBox="0 0 142.4 42" style="enable-background:new 0 0 142.4 42;" xml:space="preserve">
 <style type="text/css">
  .st0{fill:#151417;}
	.st1{fill-rule:evenodd;clip-rule:evenodd;fill:#151417;}
 </style>
 <metadata>
  <sfw xmlns="ns_sfw;">
   <slices>
   </slices>
   <sliceSourceBounds bottomLeftOrigin="true" height="42" width="142.4" x="-52.2" y="3">
   </sliceSourceBounds>
  </sfw>
 </metadata>
 <g>
  <path class="st0" d="M50.8,7.4h-5.4V35h16v-5.2H50.8V7.4z">
  </path>
  <path class="st0" d="M75.7,26c0,3.4-1.9,4.9-4.3,4.9c-2.3,0-3.9-1.4-3.9-4.1V15.3h-5.1v12.1c0,5.2,3.3,8.2,7.4,8.2
		c2.6,0,4.7-1,5.9-2.8V35h5.1V15.3h-5.1V26z">
  </path>
  <path class="st0" d="M88.7,20.9c0-1.1,1-1.6,2.3-1.6c1.5,0,2.6,0.8,3.2,2l4.3-2.4c-1.5-2.7-4.3-4.2-7.5-4.2c-4.1,0-7.5,2.2-7.5,6.3
		c0,6.9,10.2,5.4,10.2,8.2c0,1.1-1.1,1.7-2.7,1.7c-2,0-3.3-0.9-3.9-2.6l-4.4,2.5c1.4,3,4.3,4.7,8.3,4.7c4.2,0,7.9-2.1,7.9-6.3
		C98.9,22,88.7,23.8,88.7,20.9z">
  </path>
  <path class="st0" d="M111.8,14.8c-2.6,0-4.7,1-5.9,2.8V7.4h-5.1V35h5.1V24.4c0-3.4,1.9-4.9,4.3-4.9c2.3,0,3.9,1.4,3.9,4.1V35h5.1
		V22.9C119.3,17.7,116,14.8,111.8,14.8z">
  </path>
  <path class="st0" d="M137.3,15.3v2.3c-1.4-1.8-3.5-2.9-6.4-2.9c-5.2,0-9.6,4.5-9.6,10.4c0,5.9,4.3,10.4,9.6,10.4
		c2.9,0,5-1.1,6.4-2.9V35h5.1V15.3H137.3z M131.9,30.7c-3.1,0-5.4-2.2-5.4-5.6c0-3.3,2.3-5.6,5.4-5.6c3.2,0,5.5,2.2,5.5,5.6
		C137.3,28.5,135,30.7,131.9,30.7z">
  </path>
  <path class="st1" d="M30.1,10.2c0,0.8-0.1,1.5-0.3,2.2c8.2,4.8,4,20.6,2.8,24.6c0,0.1-0.2,0.1-0.2,0c0-1.3-0.2-3.2-1.1-5
		c0,0.2,0,0.5,0,0.7c0,3.4-2.8,6.2-6.2,6.2c-3.4,0-6.2-2.8-6.2-6.2c0-0.6,0.1-1.2,0.3-1.8c0,0-0.1,0-0.2,0c-0.4-0.1-0.7-0.2-1-0.2
		c-0.3,0-0.6,0.1-1,0.2c-0.1,0-0.1,0-0.2,0c0.2,0.6,0.3,1.2,0.3,1.8c0,3.4-2.8,6.2-6.2,6.2c-3.2,0-5.8-2.4-6.2-5.4
		c-0.6,2.5-0.7,5.3-0.5,8.5C4.3,42,4.1,42,4.1,42c-2.8-4.8-5.3-14.7-3.5-22c1.6-6.5,6.3-9.7,9.1-10.8C10.3,4,14.6,0,19.9,0
		C25.5,0,30.1,4.6,30.1,10.2z M8.3,27.1c0.8-0.4,1.7-0.6,2.7-0.6c2.2,0,4.2,1.2,5.3,2.9c0.1,0,0.3-0.1,0.5-0.1
		c0.4-0.1,0.9-0.2,1.3-0.2c0.5,0,1,0.1,1.4,0.2c0.2,0,0.3,0.1,0.4,0.1c1.1-1.8,3-2.9,5.3-2.9c0.2,0,0.5,0,0.7,0
		c-2.1-2.5-3-6.1-3.3-8.3C15.4,21.3,11,24.1,8.3,27.1z M29.4,32.7c0,2.4-1.9,4.3-4.3,4.3s-4.3-1.9-4.3-4.3s1.9-4.3,4.3-4.3
		S29.4,30.3,29.4,32.7z M15.2,32.7c0,2.4-1.9,4.3-4.3,4.3S6.7,35,6.7,32.7c0-2.4,1.9-4.3,4.3-4.3S15.2,30.3,15.2,32.7z">
  </path>
 </g>
</svg>